**ABCDEFGHIJKLMNOPQRSTUVWXYZabcdefghijklmnopqrstuvwxyz**************************
**PARASOLID !"#$%&'()*+,-./:;<=>?@[\]^_`{|}~0123456789**************************
**PART1;
MC=AMD64;
MC_MODEL=AMD64 Family 21 Model 2 Stepping 0, AuthenticAMD;
MC_ID=unknown;
OS=Windows_NT;
OS_RELEASE=unknown;
FRU=Parasolid Version 30.0, build 226,  7-26-2017;
APPL=SOLIDWORKS 2018-2017278;
SITE=;
USER=unknown;
FORMAT=text;
GUISE=transmit;
KEY=Catraca;
FILE=Catraca.x_t;
DATE=Mon Mar 30 15:14:02 2020;
**PART2;
SCH=SCH_3000226_30000;
USFLD_SIZE=0;
**PART3;
**END_OF_HEADER*****************************************************************
T51 : TRANSMIT FILE created by modeller version 300022623 SCH_3000226_30000_1300
6205 0 12 33 CCCCCCI4 mesh1006 0 I8 polyline1008 0 CCCCCCCDI5 owner1040 0 CCCCCC
I13 boundary_mesh1006 0 I17 boundary_polyline1008 0 CCCA16 index_map_offset0 0 1
 dA9 index_map82 0 A17 node_id_index_map82 0 A20 schema_embedding_map82 0 A5 chi
ld12 0 A14 lowest_node_id0 0 1 dZ1 298 2 3 0 0 0 0 0 0 1e3 1e-8 0 4 0 1 0 1 1 5
 6 7 8 0 0 9 10 11 0 0 0 0 0 0 81 255 2 2 211 12 1 0 0 0 0 13 0 70 11 CI9 list_t
ype0 0 1 uI10 notransmit0 0 1 lCCCDCCDI12 finger_index0 0 1 dI12 finger_block101
2 0 CZ3 0 4 T1 0 0 3 20 1 14 14 13 255 5 152 0 1 0 15 0 0 16 0 51 255 6 145 0 15
 17 0 0 -0 0 .01 0 0 -1 .014 -1 0 0 30 255 7 151 0 10 18 0 0 +0 .014 .01 0 0 -1
 29 255 8 116 0 19 20 0 .00609514029597005 -.01260354175509574 0 19 8 CCCCCCCA5
 owner12 0 Z9 50 0 1 16 0 21 V0 16 255 10 127 0 ?22 0 23 7 0 0 1 18 255 11 45 0
 24 0 25 26 ?1 17 255 24 0 27 28 29 11 30 31 0 32 -18 25 42 0 33 11 34 35 ?1 29
 26 47 0 11 35 36 .00609514029597005 -.01260354175509574 .01 29 35 44 0 25 37 26
 .01088417909994652 -.022506324562671 .01 29 36 121 0 38 26 39 0 .014 0 18 38 10
8 0 22 40 0 36 ?1 29 39 120 0 40 36 41 0 .04 0 18 40 107 0 42 43 38 39 ?1 29 41
 119 0 43 39 44 -.005 .04 0 18 43 106 0 45 46 40 41 ?1 29 44 118 0 46 41 20 -.00
310086836473017 .0248069469178417 0 18 46 105 0 47 48 43 44 ?1 29 20 117 0 48 44
 8 .01088417909994652 -.022506324562671 0 18 48 104 0 49 19 46 20 ?1 17 49 0 27
 29 28 48 50 51 0 52 +18 19 103 0 30 53 48 8 ?1 17 30 0 54 55 32 19 24 31 0 56 +
18 53 30 0 57 58 19 59 ?1 17 57 0 54 32 55 53 22 10 0 60 -18 58 33 0 61 62 53 63
 ?1 29 59 32 0 53 0 63 0 .014 .01 29 63 35 0 58 59 64 0 .04 .01 29 64 38 0 62 63
 37 -.005 .04 .01 18 62 36 0 65 34 58 64 ?1 29 37 41 0 34 64 35 -.00310086836473
017 .0248069469178417 .01 18 34 39 0 66 25 62 37 ?1 17 66 0 67 33 65 34 68 69 0
 70 +15 255 67 4 0 60 71 0 17 33 0 67 72 66 25 73 74 0 50 +17 65 0 67 66 75 62 7
6 77 0 78 +17 68 0 79 80 70 62 66 69 0 0 -16 69 18 0 ?66 74 77 81 0 0 1 17 70 0
 79 68 47 34 82 83 0 73 -15 79 132 0 47 84 0 17 47 0 79 70 80 46 85 86 0 82 +17
 82 0 87 52 73 46 70 83 0 88 +16 83 124 0 ?82 89 51 90 0 0 1 17 73 0 87 82 50 34
 33 74 0 0 -15 87 130 0 52 91 0 17 50 0 87 73 52 25 49 51 0 28 -16 74 22 0 ?33 9
2 69 93 0 0 1 16 92 26 0 ?28 31 74 94 0 0 1 31 255 93 23 0 74 81 94 0 +0 0 .01 0
 0 1 1 0 0 .025 30 81 19 0 69 95 93 0 +1024189997819432e-31 1280237497274318e-32
 .01 .124034734589211 -.992277876713667 0 30 94 27 0 92 93 96 0 +468506994921826
e-32 22657249201696e-31 .01 .4353671639978605 -.90025298250684 0 31 96 115 0 97
 94 98 0 +0 0 0 0 0 1 1 0 0 .014 16 97 98 0 ?56 99 0 96 0 0 1 30 98 114 0 99 96
 100 0 +0 0 0 0 -1 0 16 99 92 0 ?101 102 97 98 0 0 1 31 100 113 0 102 98 103 0 +
-.0025 .04 0 0 0 1 1 0 0 .0025 16 102 87 0 ?45 86 99 100 0 0 1 30 103 112 0 86 1
00 104 0 +1024189997819432e-31 1280237497274318e-32 0 .124034734589211 -.9922778
76713667 0 16 86 82 0 ?47 105 102 103 0 0 1 31 104 111 0 105 103 106 0 +0 0 0 0
 0 1 1 0 0 .025 16 105 77 0 ?52 107 86 104 0 0 1 30 106 110 0 107 104 108 0 +468
506994921826e-32 22657249201696e-31 0 .4353671639978605 -.90025298250684 0 16 10
7 72 0 ?109 110 105 106 0 0 1 30 108 146 0 31 106 111 0 +.00609514029597005 -.01
260354175509574 .01 0 0 -1 16 31 122 0 ?30 51 92 108 0 0 1 30 111 147 0 51 108 9
0 0 +.01088417909994652 -.022506324562671 .01 0 0 -1 16 51 123 0 ?49 83 31 111 0
 0 1 30 90 148 0 83 111 112 0 +-.00310086836473017 .0248069469178417 .01 0 0 -1
 30 112 149 0 89 90 18 0 +-.005 .04 .01 0 0 -1 16 89 125 0 ?80 23 83 112 0 0 1 3
0 18 150 0 23 112 7 0 +0 .04 .01 0 0 -1 16 23 126 0 ?42 10 89 18 0 0 1 17 42 0 1
13 45 76 40 61 23 0 114 +15 113 134 0 45 115 0 17 45 0 113 78 42 43 114 102 0 80
 +17 76 0 113 42 78 58 65 77 0 75 -17 61 0 116 117 118 58 42 23 0 76 -17 114 0 1
19 101 85 40 45 102 0 118 -15 119 71 0 56 120 0 17 101 0 119 56 114 38 118 99 0
 0 +17 85 0 119 114 88 43 47 86 0 0 -17 118 0 116 61 22 40 101 99 0 0 -15 116 13
6 0 118 121 0 17 22 0 116 118 117 38 57 10 0 55 +17 117 0 116 22 61 53 75 122 0
 0 +17 55 0 54 57 30 38 56 97 0 101 -15 54 138 0 55 15 0 17 56 0 119 109 101 19
 55 97 0 29 +17 109 0 119 88 56 48 29 107 0 0 +17 29 0 27 24 49 19 109 107 0 0 -
15 27 128 0 29 123 0 14 255 123 129 124 ?71 91 27 5 125 +0 0 71 91 21 81 1 124 2
91 126 123 127 0 0 128 129 14 71 1 128 ?120 123 67 5 130 +0 0 120 123 21 14 91 1
31 131 ?123 84 87 5 132 -0 0 123 84 21 50 255 125 140 0 123 133 132 0 +468506994
921826e-32 22657249201696e-31 .01 .90025298250684 .4353671639978605 0 -.43536716
39978605 .90025298250684 0 13 21 51 0 0 0 0 0 0 9 15 14 15 139 134 ?121 0 54 5 6
 +0 0 121 0 21 81 1 134 294 126 15 135 0 131 136 137 14 121 137 136 ?115 15 116
 5 17 +0 0 115 15 21 81 1 136 295 126 121 138 0 134 139 140 14 115 135 139 ?84 1
21 113 5 141 -0 0 84 121 21 50 17 144 0 121 141 6 0 +0 0 .01 1 0 0 0 0 -1 51 141
 143 0 115 142 17 0 --.0025 .04 .01 0 0 -1 .0025 -1 0 0 50 142 142 0 84 132 141
 0 +1024189997819432e-31 1280237497274318e-32 .01 .992277876713667 .124034734589
211 0 -.124034734589211 .992277876713667 0 14 84 133 143 ?91 115 79 5 142 -0 0 9
1 115 21 51 132 141 0 91 125 142 0 -0 0 .01 0 0 -1 .025 -1 0 0 81 1 143 297 126
 84 144 0 139 145 146 80 255 1 126 147 148 9000 1 1 1 1 1 1 1 1 0 FFFFTFTFFFFFFF
1 81 1 144 267 149 84 0 143 150 151 152 81 1 139 296 126 115 150 0 136 143 153 8
1 1 145 298 126 120 154 0 143 0 155 82 255 1 146 -647626608 14 120 69 145 ?0 71
 119 5 133 -0 0 0 71 21 81 1 154 271 149 120 0 145 156 0 157 82 1 155 -649527152
 80 1 149 0 158 8001 0 0 0 0 3 5 0 0 0 FFFFTFTFFFFFFF2 81 1 156 270 149 71 0 128
 127 154 159 83 255 3 157 .792156862745098 .819607843137255 .933333333333333 81
 1 128 292 126 71 156 0 124 131 160 81 1 127 269 149 123 0 124 151 156 161 83 3
 159 .792156862745098 .819607843137255 .933333333333333 81 1 151 268 149 91 0 13
1 144 127 162 83 3 161 .792156862745098 .819607843137255 .933333333333333 81 1 1
31 293 126 91 151 0 128 134 163 83 3 162 .792156862745098 .819607843137255 .9333
33333333333 82 1 163 -647954288 82 1 160 -658702192 79 255 15 158 SDL/TYSA_COLOU
R50 133 109 0 120 130 125 0 +0 0 0 0 0 1 1 0 0 50 130 2 0 71 0 133 0 +0 0 .01 0
 0 1 1 0 0 81 1 150 266 149 115 0 139 138 144 164 82 1 153 -647364464 81 1 138 2
65 149 121 0 136 135 150 165 83 3 164 .792156862745098 .819607843137255 .9333333
33333333 81 1 135 264 149 15 0 134 0 138 166 83 3 165 .792156862745098 .81960784
3137255 .933333333333333 83 3 166 .792156862745098 .819607843137255 .93333333333
3333 83 3 152 .792156862745098 .819607843137255 .933333333333333 79 14 148 SWEnt
Unchanged82 1 140 -647102320 82 1 137 -646905712 82 1 129 -648085360 17 88 0 119
 85 109 46 52 105 0 0 -17 52 0 87 50 82 48 88 105 0 109 +17 75 0 67 65 60 58 117
 122 0 0 -16 122 9 0 ?117 77 110 167 0 0 1 16 77 14 0 ?65 69 122 95 0 0 1 16 110
 5 0 ?32 122 107 168 0 0 1 30 167 10 0 122 168 95 0 +0 0 .01 0 -1 0 31 168 6 0 1
10 0 167 0 +0 0 .01 0 0 1 1 0 0 .014 31 95 15 0 77 167 81 0 +-.0025 .04 .01 0 0
 1 1 0 0 .0025 17 32 0 54 30 57 11 60 110 0 72 +17 60 0 67 75 72 53 32 110 0 117
 -17 72 0 67 60 33 11 28 92 0 0 -17 28 0 27 49 24 25 72 92 0 0 +17 78 0 113 76 4
5 62 80 89 0 68 -17 80 0 79 47 68 43 78 89 0 85 +19 16 153 0 1 0 9 5 S0 74 4 CI1
6 index_map_offset0 0 1 dCCZ20 14 3 0 0 145 2 154 0 0 0 0 0 0 0 0 0 0 0 0 0 0 0
 0 0 80 2 12 169 170 8004 0 0 0 0 3 5 0 0 0 FFTFFFFFFFFFFF2 3 83 1 13 1 79 16 17
0 SDL/TYSA_DENSITY1 0 
