**ABCDEFGHIJKLMNOPQRSTUVWXYZabcdefghijklmnopqrstuvwxyz**************************
**PARASOLID !"#$%&'()*+,-./:;<=>?@[\]^_`{|}~0123456789**************************
**PART1;
MC=AMD64;
MC_MODEL=AMD64 Family 21 Model 2 Stepping 0, AuthenticAMD;
MC_ID=unknown;
OS=Windows_NT;
OS_RELEASE=unknown;
FRU=Parasolid Version 30.0, build 226,  7-26-2017;
APPL=SOLIDWORKS 2018-2017278;
SITE=;
USER=unknown;
FORMAT=text;
GUISE=transmit;
KEY=Peça 3;
FILE=Peça 3.x_t;
DATE=Mon Mar 30 15:20:18 2020;
**PART2;
SCH=SCH_3000226_30000;
USFLD_SIZE=0;
**PART3;
**END_OF_HEADER*****************************************************************
T51 : TRANSMIT FILE created by modeller version 300022623 SCH_3000226_30000_1300
6205 0 12 33 CCCCCCI4 mesh1006 0 I8 polyline1008 0 CCCCCCCDI5 owner1040 0 CCCCCC
I13 boundary_mesh1006 0 I17 boundary_polyline1008 0 CCCA16 index_map_offset0 0 1
 dA9 index_map82 0 A17 node_id_index_map82 0 A20 schema_embedding_map82 0 A5 chi
ld12 0 A14 lowest_node_id0 0 1 dZ1 461 2 3 0 0 0 0 0 0 1e3 1e-8 0 4 0 1 0 1 1 5
 6 7 8 0 0 9 10 11 0 0 0 0 0 0 81 255 2 2 334 12 1 0 0 0 0 13 0 70 11 CI9 list_t
ype0 0 1 uI10 notransmit0 0 1 lCCCDCCDI12 finger_index0 0 1 dI12 finger_block101
2 0 CZ3 0 4 T1 0 0 3 20 1 14 14 13 255 5 37 0 1 0 15 0 0 16 0 51 255 6 36 0 15 1
7 0 0 -0 .02 0 0 -1 0 .025 0 0 -1 31 255 7 31 0 18 19 0 0 +0 0 0 0 1 0 0 0 1 .02
5 29 255 8 200 0 11 20 0 .00613929231044262 .02 .0136860911120356 19 8 CCCCCCCA5
 owner12 0 Z9 12 0 1 16 0 21 V0 16 255 10 62 0 ?22 0 23 24 0 0 1 18 255 11 198 0
 25 0 26 8 ?1 17 255 25 0 27 28 29 11 30 31 0 32 +18 26 181 0 33 11 34 20 ?1 17
 33 0 35 36 37 26 38 39 0 40 -18 34 244 0 41 26 42 43 ?1 29 20 183 0 26 44 8 .00
818572308059017 0 .01824812148271415 29 44 291 0 42 43 20 .00613929231044262 0 -
.0136860911120356 18 42 243 0 45 34 46 44 ?1 29 43 292 0 34 47 44 .0081857230805
9016 0 -.01824812148271415 29 47 293 0 46 48 43 .00613929231044262 0 .0136860911
120356 18 46 246 0 36 42 49 47 ?1 29 48 295 0 49 50 47 .00613929231044262 .02 -.
0136860911120356 18 49 240 0 29 46 51 48 ?1 29 50 296 0 51 52 48 .00818572308059
016 .02 -.01824812148271415 18 51 241 0 53 49 54 50 ?1 29 52 297 0 54 0 50 .0081
8572308059016 .02 .01824812148271415 18 54 242 0 38 51 0 52 ?1 17 38 0 55 56 40
 54 33 39 0 37 +15 255 55 258 0 40 57 0 17 56 0 55 58 38 51 59 60 0 61 +17 40 0
 55 38 58 26 62 63 0 64 +16 39 222 0 ?38 65 66 67 0 0 1 17 37 0 35 33 32 54 68 6
9 0 59 +15 35 262 0 36 70 0 17 32 0 35 37 36 11 28 66 0 68 +17 68 0 71 30 59 11
 37 69 0 0 -16 69 226 0 ?37 60 31 72 0 0 1 17 59 0 71 68 61 54 56 60 0 0 -15 71
 214 0 30 73 74 17 61 0 71 59 30 51 75 76 0 0 -16 60 229 0 ?56 76 69 77 0 0 1 16
 76 232 0 ?75 66 60 78 0 0 1 31 77 285 0 60 72 78 0 +0 .02 0 0 1 0 0 0 1 .02 30
 255 72 286 0 69 79 77 0 +.00818572308059016 .02 .01824812148271415 .40928615402
95085 0 .912406074135707 30 78 284 0 76 77 80 0 +.00818572308059016 .02 -.018248
12148271415 -.4092861540295085 0 .912406074135707 30 80 283 0 81 78 82 0 +.00613
929231044262 -.03903965891560695 -.0136860911120356 0 1 0 16 81 220 0 ?29 63 65
 80 0 0 1 30 82 282 0 65 80 67 0 +.00818572308059016 -.03903965891560695 -.01824
812148271415 0 1 0 16 65 221 0 ?53 81 39 82 0 0 1 30 67 281 0 39 82 83 0 +.00818
572308059016 -.03903965891560695 .01824812148271415 0 1 0 30 83 280 0 66 67 84 0
 +.00613929231044262 -.03903965891560695 .0136860911120356 0 1 0 16 66 219 0 ?32
 39 76 83 0 0 1 30 84 279 0 85 83 86 0 +.00818572308059016 0 .01824812148271415
 -.4092861540295085 0 -.912406074135707 16 85 238 0 ?36 87 88 84 0 0 1 31 86 164
 0 89 84 90 0 +.0105 .035 0 0 1 0 0 0 1 .001 16 89 144 0 ?91 92 87 86 0 0 1 31 9
0 163 0 87 86 93 0 +.0105 .03 0 0 1 0 0 0 1 .001 16 87 141 0 ?94 89 85 90 0 0 1
 31 93 133 0 95 90 96 0 +0 .035 0 0 1 0 0 0 1 .001 16 95 113 0 ?97 98 92 93 0 0
 1 31 96 132 0 92 93 99 0 +0 .03 0 0 1 0 0 0 1 .001 16 92 110 0 ?100 95 89 96 0
 0 1 31 99 91 0 98 96 24 0 +0 .03 0 0 1 0 0 0 1 .014 16 98 71 0 ?101 18 95 99 0
 0 1 31 24 90 0 10 99 19 0 +0 .02 0 0 1 0 0 0 1 .014 31 19 6 0 23 24 7 0 +0 .02
 0 0 1 0 0 0 1 .025 16 23 5 0 ?102 10 18 19 0 0 1 17 102 0 103 102 102 0 104 23
 0 0 +16 18 24 0 ?105 23 98 7 0 0 1 17 105 0 106 105 105 0 107 18 0 0 +15 106 34
 0 105 15 0 17 107 0 108 107 107 0 105 18 0 0 -15 108 23 0 107 109 0 14 255 109
 21 110 ?111 73 112 5 17 -0 0 111 73 21 81 1 110 449 113 109 114 0 0 115 116 14
 111 74 115 ?117 109 118 5 119 -0 0 117 109 21 14 73 1 120 ?109 15 71 5 121 +0 0
 109 15 21 15 112 179 0 122 109 108 50 255 17 30 0 109 121 6 0 +0 0 0 0 1 0 0 0
 1 13 21 13 0 0 0 0 0 0 9 15 14 15 33 123 ?73 0 124 5 6 -0 0 73 0 21 81 1 123 45
2 113 15 125 0 120 126 127 15 124 32 0 104 15 106 17 104 0 124 104 104 0 102 23
 0 0 -80 255 1 113 128 129 9000 1 1 1 1 1 1 1 1 0 FFFFTFTFFFFFFF1 81 1 125 407 1
30 15 0 123 0 131 132 81 1 120 451 113 73 131 0 115 123 133 81 1 126 453 113 134
 135 0 123 136 137 82 255 1 127 1530921485 14 134 247 126 ?138 139 27 5 140 -0 0
 138 139 21 81 1 135 416 130 134 0 126 141 142 143 81 1 136 454 113 138 142 0 12
6 144 145 82 1 137 958005817 14 138 251 136 ?57 134 146 5 147 -0 0 57 134 21 81
 1 142 417 130 138 0 136 135 148 149 81 1 144 455 113 57 148 0 136 150 151 82 1
 145 957612601 14 57 255 144 ?70 138 55 5 152 -0 0 70 138 21 81 1 148 418 130 57
 0 144 142 153 154 81 1 150 456 113 70 153 0 144 155 156 82 1 151 957743673 14 7
0 259 150 ?0 57 35 5 157 -0 0 0 57 21 81 1 153 419 130 70 0 150 148 0 158 81 1 1
55 457 113 139 141 0 150 159 160 82 1 156 957874745 14 139 152 155 ?134 161 162
 5 163 +0 0 134 161 21 81 1 141 415 130 139 0 155 164 135 165 81 1 159 458 113 1
61 164 0 155 166 167 82 1 160 932184629 14 161 147 159 ?139 168 169 5 170 -0 0 1
39 168 21 81 1 164 414 130 161 0 159 171 141 172 81 1 166 459 113 168 171 0 159
 173 174 82 1 167 934150709 14 168 121 166 ?161 175 176 5 177 +0 0 161 175 21 81
 1 171 413 130 168 0 166 178 164 179 81 1 173 460 113 175 178 0 166 180 181 82 1
 174 928055861 14 175 116 173 ?168 117 182 5 183 -0 0 168 117 21 81 1 178 412 13
0 175 0 173 184 171 185 81 1 180 461 113 117 184 0 173 0 186 82 1 181 930021941
 14 117 79 180 ?175 111 187 5 188 +0 0 175 111 21 81 1 184 411 130 117 0 180 189
 178 190 82 1 186 916324917 80 1 130 0 191 8001 0 0 0 0 3 5 0 0 0 FFFFTFTFFFFFFF
2 81 1 189 410 130 111 0 115 114 184 192 83 255 3 190 .792156862745098 .81960784
3137255 .933333333333333 81 1 115 450 113 111 189 0 110 120 193 81 1 114 409 130
 109 0 110 131 189 194 83 3 192 .792156862745098 .819607843137255 .9333333333333
33 81 1 131 408 130 73 0 120 125 114 195 83 3 194 .792156862745098 .819607843137
255 .933333333333333 83 3 195 .792156862745098 .819607843137255 .933333333333333
 82 1 193 918290994 79 255 15 191 SDL/TYSA_COLOUR15 187 135 0 196 117 197 50 188
 89 0 117 183 119 0 +0 .03 0 0 1 0 0 0 1 51 183 129 0 175 177 188 0 -0 .035 0 0
 -1 0 .001 0 0 -1 51 119 87 0 111 188 121 0 -0 .03 0 0 -1 0 .014 0 0 -1 50 121 2
 0 73 119 17 0 +0 .02 0 0 1 0 0 0 1 50 177 131 0 168 170 183 0 +0 .035 0 0 1 0 0
 0 1 51 170 160 0 161 163 177 0 -.0105 .035 0 0 -1 0 .001 0 0 -1 50 163 162 0 13
9 140 170 0 +.0105 .035 0 0 1 0 0 0 1 51 140 273 0 134 157 163 0 -0 -.0390396589
1560695 0 0 1 0 .015 0 0 1 50 157 274 0 70 152 140 0 +.00818572308059016 -.03903
965891560695 .01824812148271415 -.912406074135707 0 .4092861540295085 .409286154
0295085 0 .912406074135707 51 152 275 0 57 147 157 0 +0 -.03903965891560695 0 0
 1 0 .02 0 0 1 50 147 276 0 138 0 152 0 +.00818572308059016 -.03903965891560695
 -.01824812148271415 -.912406074135707 0 -.4092861540295085 -.4092861540295085 0
 .912406074135707 17 196 0 187 196 196 0 94 87 0 0 -15 197 104 0 198 117 199 17
 198 0 197 198 198 0 100 92 0 0 -15 199 81 0 101 117 0 17 101 0 199 101 101 0 20
0 98 0 0 +17 200 0 118 200 200 0 101 98 0 0 -15 118 77 0 200 111 201 15 201 78 0
 22 111 0 17 22 0 201 22 22 0 202 10 0 0 +17 202 0 74 202 202 0 22 10 0 0 -15 74
 64 0 202 73 103 15 103 4 0 102 73 0 17 100 0 203 100 100 0 198 92 0 0 +15 203 1
20 0 100 175 0 17 94 0 204 94 94 0 196 87 0 0 +15 204 151 0 94 161 0 83 3 185 .7
92156862745098 .819607843137255 .933333333333333 15 182 119 0 205 175 203 17 205
 0 182 205 205 0 97 95 0 0 -17 97 0 176 97 97 0 205 95 0 0 +15 176 123 0 97 168
 0 83 3 179 .792156862745098 .819607843137255 .933333333333333 83 3 172 .7921568
62745098 .819607843137255 .933333333333333 15 169 150 0 206 161 204 17 206 0 169
 206 206 0 91 89 0 0 -17 91 0 162 91 91 0 206 89 0 0 +15 162 154 0 91 139 0 83 3
 165 .792156862745098 .819607843137255 .933333333333333 83 3 158 .79215686274509
8 .819607843137255 .933333333333333 83 3 154 .792156862745098 .819607843137255 .
933333333333333 83 3 149 .792156862745098 .819607843137255 .933333333333333 15 1
46 254 0 41 138 0 17 41 0 146 53 207 34 122 208 0 58 +17 53 0 146 75 41 51 58 65
 0 56 +17 207 0 146 41 75 42 29 81 0 122 -17 122 0 112 209 62 42 41 208 0 0 -16
 208 236 0 ?41 88 63 210 0 0 1 17 58 0 55 40 56 34 53 65 0 62 -17 62 0 112 122 6
4 34 40 63 0 0 -17 64 0 112 62 209 26 36 85 0 0 -16 63 237 0 ?40 208 81 211 0 0
 1 31 211 290 0 63 0 210 0 -0 0 0 0 1 0 0 0 1 .02 30 210 289 0 208 211 212 0 +.0
0818572308059016 0 -.01824812148271415 .4092861540295085 0 -.912406074135707 31
 212 288 0 88 210 79 0 +0 0 0 0 1 0 0 0 1 .015 16 88 235 0 ?45 85 208 212 0 0 1
 31 79 287 0 31 212 72 0 +0 .02 0 0 -1 0 0 0 1 .015 16 31 223 0 ?25 69 0 79 0 0
 1 17 45 0 27 29 28 42 209 88 0 207 +15 27 250 0 45 134 0 17 29 0 27 25 45 49 20
7 81 0 75 +17 28 0 27 45 25 46 32 66 0 209 -17 209 0 112 64 122 46 45 88 0 0 -17
 75 0 146 207 53 49 61 76 0 30 +17 30 0 71 61 68 49 25 31 0 0 -17 36 0 35 32 33
 46 64 85 0 28 +83 3 143 .792156862745098 .819607843137255 .933333333333333 82 1
 133 697500217 83 3 132 .792156862745098 .819607843137255 .933333333333333 79 14
 129 SWEntUnchanged82 1 116 76415545 19 16 38 0 1 0 9 5 S0 74 4 CI16 index_map_o
ffset0 0 1 dCCZ20 14 3 0 0 180 2 153 0 0 0 0 0 0 0 0 0 0 0 0 0 0 0 0 0 80 2 12 2
13 214 8004 0 0 0 0 3 5 0 0 0 FFTFFFFFFFFFFF2 3 83 1 13 1 79 16 214 SDL/TYSA_DEN
SITY1 0 
