**ABCDEFGHIJKLMNOPQRSTUVWXYZabcdefghijklmnopqrstuvwxyz**************************
**PARASOLID !"#$%&'()*+,-./:;<=>?@[\]^_`{|}~0123456789**************************
**PART1;
MC=AMD64;
MC_MODEL=AMD64 Family 21 Model 2 Stepping 0, AuthenticAMD;
MC_ID=unknown;
OS=Windows_NT;
OS_RELEASE=unknown;
FRU=Parasolid Version 30.0, build 226,  7-26-2017;
APPL=SOLIDWORKS 2018-2017278;
SITE=;
USER=unknown;
FORMAT=text;
GUISE=transmit;
KEY=Peça 1 - Funil;
FILE=Peça 1 - Funil.x_t;
DATE=Mon Mar 30 15:26:20 2020;
**PART2;
SCH=SCH_3000226_30000;
USFLD_SIZE=0;
**PART3;
**END_OF_HEADER*****************************************************************
T51 : TRANSMIT FILE created by modeller version 300022623 SCH_3000226_30000_1300
6205 0 12 33 CCCCCCI4 mesh1006 0 I8 polyline1008 0 CCCCCCCDI5 owner1040 0 CCCCCC
I13 boundary_mesh1006 0 I17 boundary_polyline1008 0 CCCA16 index_map_offset0 0 1
 dA9 index_map82 0 A17 node_id_index_map82 0 A20 schema_embedding_map82 0 A5 chi
ld12 0 A14 lowest_node_id0 0 1 dZ1 762 0 2 0 0 0 0 0 0 1e3 1e-8 0 3 0 1 0 1 1 4
 5 6 0 0 0 7 8 0 0 0 0 0 0 0 70 11 CI9 list_type0 0 1 uI10 notransmit0 0 1 lCCCD
CCDI12 finger_index0 0 1 dI12 finger_block1012 0 CZ2 0 4 T1 0 0 2 20 1 9 9 13 25
5 4 29 0 1 0 10 0 0 11 0 54 255 5 542 0 12 13 0 0 +0 0 .00221849336749549 0 0 1
 .015 .01 1 0 0 31 255 6 497 0 8 14 0 0 +0 0 .00221849336749549 0 0 1 1 0 0 .025
 19 8 CCCCCCCA5 owner12 0 Z7 7 0 1 11 0 15 V0 16 255 8 494 0 ?16 0 17 6 0 0 1 17
 255 16 0 18 16 16 0 19 8 0 0 +16 17 487 0 ?20 8 21 14 0 0 1 17 20 0 22 20 20 0
 23 17 0 0 +16 21 480 0 ?24 17 25 26 0 0 1 31 14 490 0 17 26 6 0 -0 0 -.02798963
871418425 0 0 -1 -1 0 0 .01193816860004734 31 26 483 0 21 27 14 0 -0 0 -.0020103
61285815755 0 0 1 1 0 0 .02406183139995265 31 27 476 0 25 28 26 0 +0 0 -.0322184
933674955 0 0 -1 -1 0 0 .011 16 25 473 0 ?29 21 30 27 0 0 1 31 28 469 0 30 31 27
 0 -0 0 .00192582403567252 0 0 1 1 0 0 .02 16 30 466 0 ?32 25 33 28 0 0 1 31 31
 462 0 33 34 28 0 -0 0 -.001788082727868525 0 0 -1 -1 0 0 .0192847669088526 16 3
3 459 0 ?35 30 36 31 0 0 1 137 255 34 396 0 1 37 31 38 -39 40 0 ?133 255 37 395
 0 41 42 34 0 +34 2449293598294705e-33 .008 -.055 -128649811974131e-32 .008 -.05
5 0 -1 141 255 38 37 38 38 34 51 255 39 249 0 43 44 45 46 -0 0 -.035 0 0 1 .008
 1 0 0 134 255 40 0 0 0 0 0 0 +47 48 136 255 47 1 2 2 2 5 FFF1 49 50 51 135 255
 48 2 0 45 255 4 49 1.570796326794895 -.02 7.85398163397448 -.02 127 255 2 50 2
 2 128 255 2 51 0 1 14 255 43 239 52 ?53 54 55 4 39 +0 0 53 54 15 52 255 44 309
 0 53 56 39 57 +0 0 -.055 0 0 1 .0105 .024992191160203 .999687646408123 1 0 0 51
 45 246 0 54 39 58 59 -0 0 -.035 0 0 1 .011 1 0 0 141 46 60 61 61 39 137 60 254
 0 1 62 63 64 +39 65 0 ?141 61 34 46 46 39 133 62 255 0 66 67 60 0 +60 -.008 979
717439317882e-33 -.03 -.008 2939152317953645e-33 -.03 0 1 133 63 204 0 68 60 69
 0 +69 2449293598294705e-33 .008 -.03 -128649811974131e-32 .008 -.03 0 -1 141 64
 62 64 64 60 134 65 0 0 0 0 0 0 +70 71 136 70 1 2 2 2 5 FFF1 72 73 74 135 71 2 0
 45 4 72 3.141592653589795 .005 9.42477796076938 .005 127 2 73 2 2 128 2 74 0 1
 17 68 0 75 68 68 0 66 76 63 0 -137 69 203 0 1 63 77 78 -58 79 0 ?31 77 72 0 80
 69 81 0 +0 0 .005 0 0 1 1 0 0 .02 141 78 63 78 78 69 52 58 190 0 82 45 83 84 +0
 0 -.03 0 0 1 .008 .3713906763541035 .928476690885259 1 0 0 134 79 0 0 0 0 0 0 +
85 86 136 85 1 2 2 2 5 FFF1 87 88 89 135 86 2 0 45 4 87 1.570796326794895 0 7.85
398163397448 0 127 2 88 2 2 128 2 89 0 1 14 82 176 90 ?54 91 92 4 58 -0 0 54 91
 15 52 83 117 0 91 58 93 0 +0 0 -.03 0 0 1 .011 .422885465331124 .90618313999526
5 1 0 0 141 84 69 84 84 58 14 91 102 94 ?82 95 22 4 83 +0 0 82 95 15 51 93 68 0
 95 83 96 0 -0 0 .005 0 0 -1 .02 -1 0 0 14 95 55 97 ?91 98 99 4 93 +0 0 91 98 15
 50 255 96 2 0 10 93 100 0 +0 0 .005 0 0 1 1 0 0 14 10 46 101 ?98 0 102 4 96 +0
 0 98 0 15 51 100 28 0 98 96 103 0 -0 0 .005 0 0 -1 .025 -1 0 0 14 98 25 104 ?95
 10 18 4 100 -0 0 95 10 15 54 103 516 0 105 100 13 0 +0 0 .00192582403567252 0 0
 1 .01 .01 1 0 0 14 105 509 106 ?107 108 109 4 103 -0 0 107 108 15 54 13 529 0 1
07 103 5 0 +0 0 -.0322184933674955 0 0 -1 .021 .01 -1 0 0 14 107 522 110 ?12 105
 111 4 13 -0 0 12 105 15 81 255 1 110 752 112 107 113 0 106 114 115 14 12 535 11
4 ?0 107 116 4 5 +0 0 0 107 15 15 255 111 523 0 23 107 117 13 15 8 0 0 0 0 0 0 7
 10 17 23 0 111 23 23 0 20 17 0 0 -15 117 524 0 118 107 0 17 118 0 117 118 118 0
 29 25 0 0 -17 29 0 119 29 29 0 118 25 0 0 +15 119 474 0 29 54 120 14 54 234 121
 ?43 82 119 4 45 -0 0 43 82 15 15 120 237 0 122 54 0 17 122 0 120 122 122 0 123
 124 125 0 -17 123 0 126 123 123 0 122 124 127 0 +16 124 214 0 1e-5 123 76 128 0
 0 0 1 133 125 281 0 122 81 129 0 +129 -.011 1347111479062088e-33 -.035 -.011 40
41334437186265e-33 -.035 0 1 31 81 5 0 36 77 125 0 +0 0 .005 0 0 1 1 0 0 .025 13
7 129 282 0 1 125 130 131 +45 132 0 ?133 130 352 0 133 129 42 0 +42 .008 0 -.055
 .008 0 -.055 0 1 141 131 125 131 131 129 134 132 0 0 0 0 0 0 +134 135 136 134 1
 2 2 2 5 FFF1 136 137 138 135 135 2 0 45 4 136 3.141592653589795 0 9.42477796076
938 0 127 2 137 2 2 128 2 138 0 1 17 133 0 139 133 133 0 41 140 130 0 +137 42 35
3 0 1 130 37 141 +56 142 0 ?141 141 130 141 141 42 50 56 311 0 108 0 44 143 +0 0
 -.055 0 0 1 1 0 0 134 142 0 0 0 0 0 0 +144 145 136 144 2 65 2 35 5 TTF1 146 147
 148 135 145 2 0 45 130 146 .008 0 .008 .000787653463202054 .00784628224322584 .
001560722576129025 .00769272487917338 .00233298505056683 .00739103626009029 .003
06146745892072 .00708976852291271 .00378893357085254 .00665175689842036 .0044445
6186415682 .00621435633830564 .00509927549887078 .00565685424949238 .00565685424
949238 .00510012992466652 .00621365512917668 .00444456186415682 .006651756898420
36 .00378990837820761 .00708924747752653 .00306146745892072 .00739103626009029 .
002334042778180285 .0076924040210096 .001560722576129025 .00784628224322584 .000
788481223131267 .00799994579191623 0 .008 -.000787381223140137 .0080000541324587
7 -.001560722576129025 .00784628224322584 -.00233298505056921 .00769272487917257
 -.00306146745892072 .00739103626009029 -.003788933570858115 .00708976852291022
 -.004444561864156815 .00665175689842036 -.00509927549887452 .0062143563383019 -
.00565685424949238 .00565685424949238 -.00621365512917355 .00510012992466965 -.0
0665175689842036 .00444456186415682 -.00708924747752484 .003789908378211685 -.00
739103626009029 .00306146745892072 -.0076924040210096 .002334042778180285 -.0078
4628224322584 .00156072257612903 -.00799994579191623 .000788481223131269 -.008 9
79717439317882e-33 -.00800005413245877 -.000787381223140138 -.00784628224322584
 -.001560722576129025 -.00769272487917303 -.00233298505056692 -.0073910362600903
 -.003061467458920715 -.00708976852291321 -.003788933570852095 -.006651756898420
36 -.004444561864156815 -.00621435633830627 -.00509927549886953 -.00565685424949
238 -.00565685424949238 -.00510012992466704 -.00621365512917678 -.00444456186415
682 -.00665175689842036 -.0037899083782073 -.00708924747752628 -.003061467458920
725 -.00739103626009029 -.00233404277817969 -.00769240402101022 -.00156072257612
903 -.00784628224322584 -.000788481223128747 -.00799994579191623 -17347234759768
05e-33 -.008 .000787381223137651 -.00800005413245877 .001560722576129025 -.00784
628224322584 .002332985050564075 -.00769272487917409 .00306146745892072 -.007391
03626009029 .003788933570852325 -.00708976852291323 .004444561864156815 -.006651
75689842036 .00509927549887194 -.00621435633830449 .00565685424949238 -.00565685
424949238 .00621365512917742 -.00510012992466578 .00665175689842036 -.0044445618
6415682 .00708924747752595 -.00378990837820811 .00739103626009029 -.003061467458
920725 .00769240402101022 -.00233404277817969 .00784628224322584 -.0015607225761
2903 .008 -.000788208798573209 .008 0 127 35 147 1 2 2 2 2 2 2 2 2 2 2 2 2 2 2 2
 2 2 2 2 2 2 2 2 2 2 2 2 2 2 2 2 2 2 1 128 35 148 -.03125 0 .03125 .0625 .09375
 .125 .15625 .1875 .21875 .25 .28125 .3125 .34375 .375 .40625 .4375 .46875 .5 .5
3125 .5625 .59375 .625 .65625 .6875 .71875 .75 .78125 .8125 .84375 .875 .90625 .
9375 .96875 1 1.03125 14 108 298 149 ?105 53 139 4 56 -0 0 105 53 15 141 143 150
 151 151 56 137 150 320 0 1 152 127 153 +56 154 0 ?141 151 42 143 143 56 133 152
 321 0 155 156 150 0 +150 -975781955236954e-33 .0105 -.055 -975781955236954e-33
 .0105 -.055 0 1 133 127 315 0 123 150 67 0 +67 336777869765522e-32 .011 -.035 6
73555739531044e-33 .011 -.035 0 1 141 153 152 153 153 150 134 154 0 0 0 0 0 0 +1
57 158 136 157 2 65 2 35 5 TTF1 159 160 161 135 158 2 0 45 130 159 -975781955236
954e-33 .0105 .00103075964313688 .0105 .00204857726477015 .010297763412266 .0030
65979964160085 .01009560926804334 .0040185970446514 .00970115052024319 .00497027
21068875 .00930708184243965 .00583353159478162 .00873023839987309 .0066956736662
7002 .00815414163236228 .00742497213040569 .00742483120378754 .0081534413815768
 .00669635000178094 .00873019088568926 .00583327148197212 .00930638581750055 .00
497102285354146 .00970106521037392 .004018328297136855 .0100953471592843 .003066
59310853013 .01029793207337282 .00204840189042437 .01050030609975432 .0010312705
93351106 .01050036180470954 -929601694406312e-23 .0105004174510297 -.00103020365
9714988 .01029793869436336 -.002048396304017955 .01009567262920936 -.00306551939
941154 .00970106951102636 -.004018306312332345 .00930688380879195 -.004970085355
7388 .0087301720978496 -.00583329068267908 .00815406659784638 -.0066955886507050
4 .00742488611710764 -.00742486137171536 .00669645858461984 -.00815338104922786
 .00583333305708251 -.0087301869158107 .0049710717987058 -.00930641521226469 .00
4018339890962835 -.00970110157524563 .00306661806854213 -.010095369492178 .00204
8404135901245 -.01029793461545316 .00103131518610255 -.01050027593282586 -477048
955893622e-32 -.0105003295985653 -.001030232878744626 -.01050038320798554 -.0020
4840413590126 -.01029793461545316 -.00306557709369015 -.01009568452027622 -.0040
1833989096285 -.00970110157524563 -.00497011294854256 -.00930692852699521 -.0058
3333305708252 -.00873018691581069 -.00669561742080468 -.00815407050203358 -.0074
2488611710763 -.00742486137171535 -.00815337717053584 -.00669642982075472 -.0087
3017209784958 -.00583329068267909 -.00930637050654721 -.00497104419906308 -.0097
0106951102634 -.00401830631233236 -.01009535757828098 -.003066560359856365 -.010
29793869436336 -.002048396304017965 -.01050031015764322 -.001031285954230034 -.0
1050036180470954 -929601694579785e-23 -.0105004133977344 .001030188275155248 -.0
1029793207337282 .00204840189042437 -.01009566221142946 .003065552129038735 -.00
970106521037391 .004018328297136855 -.00930689910451627 .00497006404507357 -.008
73019088568925 .00583327148197211 -.00815413077095624 .00669550884725458 -.00742
497213040569 .00742483120378754 -.00669651477092353 .00815345212179539 -.0058335
3159478162 .00873023839987309 -.00497123091900061 .00930656851976158 -.004018597
04465141 .00970115052024319 -.00306702098137208 .01009529437421404 -.00204857726
4770155 .010297763412266 -.001031302801343902 .0105 -975781955236954e-33 .0105 1
27 35 160 1 2 2 2 2 2 2 2 2 2 2 2 2 2 2 2 2 2 2 2 2 2 2 2 2 2 2 2 2 2 2 2 2 2 1
 128 35 161 -.03125 0 .03125 .0625 .09375 .125 .15625 .1875 .21875 .25 .28125 .3
125 .34375 .375 .40625 .4375 .46875 .5 .53125 .5625 .59375 .625 .65625 .6875 .71
875 .75 .78125 .8125 .84375 .875 .90625 .9375 .96875 1 1.03125 137 67 314 0 1 12
7 62 162 +44 163 0 ?141 162 127 162 162 67 134 163 0 0 0 0 0 0 +164 165 136 164
 1 2 2 2 5 FFF1 166 167 168 135 165 2 0 45 4 166 7.85398163397448 .02 1.57079632
6794895 .02 127 2 167 2 2 128 2 168 0 1 17 155 0 169 155 155 0 170 128 152 0 -13
7 156 322 0 1 171 152 172 +44 173 0 ?133 171 323 0 170 0 156 0 +156 -16885287821
6047e-32 .0105 -.055 32146978477618e-31 .0105 -.055 0 1 141 172 171 172 172 156
 134 173 0 0 0 0 0 0 +174 175 136 174 1 2 2 2 5 FFF1 176 177 178 135 175 2 0 45
 4 176 1.570796326794895 0 7.85398163397448 0 127 2 177 2 2 128 2 178 0 1 17 170
 0 179 170 170 0 155 128 171 0 +15 179 296 0 170 53 126 16 128 285 0 65957107745
5017e-21 170 124 140 0 0 0 1 16 140 361 0 500403334620114e-21 133 128 0 0 0 0 1
 14 53 294 180 ?108 43 179 4 44 +0 0 108 43 15 15 126 297 0 123 53 0 81 1 180 75
6 112 53 181 0 149 0 182 80 255 1 112 183 184 9000 1 1 1 1 1 1 1 1 0 FFFFTFTFFFF
FFF1 81 1 181 713 185 53 0 180 186 187 188 81 1 149 755 112 108 187 0 121 180 18
9 82 255 1 182 1043464372 81 1 187 714 185 108 0 149 181 190 191 81 1 121 754 11
2 54 192 0 114 149 193 82 1 189 1043529909 81 1 192 711 185 54 0 121 194 186 195
 81 1 114 753 112 12 196 0 110 121 197 82 1 193 -1354366793 81 1 196 717 185 12
 0 114 113 0 198 82 1 197 80216247 80 1 185 0 199 8001 0 0 0 0 3 5 0 0 0 FFFFTFT
FFFFFFF2 81 1 113 716 185 107 0 110 190 196 200 83 255 3 198 .792156862745098 .8
19607843137255 .933333333333333 81 1 190 715 185 105 0 106 187 113 201 83 3 200
 .792156862745098 .819607843137255 .933333333333333 81 1 106 751 112 105 190 0 1
04 110 202 83 3 201 .792156862745098 .819607843137255 .933333333333333 81 1 104
 750 112 98 203 0 101 106 204 82 1 202 77725879 81 1 203 707 185 98 0 104 205 20
6 207 81 1 101 749 112 10 205 0 97 104 208 82 1 204 -1351089993 81 1 205 706 185
 10 0 101 0 203 209 81 1 97 748 112 95 206 0 94 101 210 82 1 208 771621026 81 1
 206 708 185 95 0 97 203 211 212 81 1 94 747 112 91 211 0 90 97 213 82 1 210 -13
55022153 81 1 211 709 185 91 0 94 206 194 214 81 1 90 746 112 82 194 0 52 94 215
 82 1 213 -1355218761 81 1 194 710 185 82 0 90 211 192 216 81 1 52 745 112 43 18
6 0 0 90 217 82 1 215 -1349910345 81 1 186 712 185 43 0 52 192 181 218 82 1 217
 970916021 83 3 218 .792156862745098 .819607843137255 .933333333333333 83 3 216
 .792156862745098 .819607843137255 .933333333333333 83 3 214 .792156862745098 .8
19607843137255 .933333333333333 83 3 212 .792156862745098 .819607843137255 .9333
33333333333 83 3 209 .792156862745098 .819607843137255 .933333333333333 83 3 207
 .792156862745098 .819607843137255 .933333333333333 79 255 15 199 SDL/TYSA_COLOU
R83 3 195 .792156862745098 .819607843137255 .933333333333333 83 3 191 .792156862
745098 .819607843137255 .933333333333333 83 3 188 .792156862745098 .819607843137
255 .933333333333333 79 14 184 SWEntUnchanged15 169 301 0 155 108 0 15 139 348 0
 133 108 169 17 41 0 219 41 41 0 133 140 37 0 -15 219 367 0 41 43 0 16 36 4 0 ?2
20 33 80 81 0 0 1 17 220 0 102 220 220 0 221 36 0 0 +16 80 52 0 ?222 36 76 77 0
 0 1 17 222 0 223 222 222 0 224 80 0 0 +16 76 172 0 469591627564974e-20 66 80 12
4 0 0 0 1 17 66 0 55 66 66 0 68 76 62 0 +15 55 243 0 66 43 219 15 223 58 0 222 9
5 0 17 224 0 225 224 224 0 222 80 0 0 -15 225 43 0 224 10 0 15 102 3 0 220 10 22
5 17 221 0 226 221 221 0 220 36 0 0 -15 226 24 0 221 98 0 15 116 536 0 19 12 227
 17 19 0 116 19 19 0 16 8 0 0 -15 227 537 0 228 12 0 17 228 0 227 228 228 0 24 2
1 0 0 -17 24 0 229 24 24 0 228 21 0 0 +15 229 481 0 24 91 0 82 1 115 78971063 15
 109 510 0 230 105 231 17 230 0 109 230 230 0 32 30 0 0 -15 231 511 0 232 105 0
 17 232 0 231 232 232 0 35 33 0 0 -17 35 0 92 35 35 0 232 33 0 0 +15 92 460 0 35
 82 75 15 75 178 0 68 82 0 17 32 0 99 32 32 0 230 30 0 0 +15 99 467 0 32 95 223
 15 18 495 0 16 98 226 15 22 488 0 20 91 229 141 59 129 59 59 45 141 57 156 233
 233 44 141 233 67 57 57 44 19 11 30 0 1 0 7 4 S0 74 4 CI16 index_map_offset0 0
 1 dCCZ20 9 2 0 0 180 196 0 0 0 0 0 0 0 0 0 0 0 0 0 0 0 0 0 0 1 0 
